<svg width="28" height="28" viewBox="0 0 28 28" fill="none" xmlns="http://www.w3.org/2000/svg">
<path d="M0.666992 14.1653C0.666992 6.71063 6.63633 0.666626 14.0003 0.666626C21.3643 0.666626 27.3337 6.71063 27.3337 14.1653V21.156C27.3337 22.2453 27.3337 22.9933 27.143 23.6493C26.9598 24.281 26.6459 24.8671 26.2217 25.3697C25.7974 25.8723 25.2723 26.2801 24.6803 26.5666C24.0697 26.86 23.3417 26.976 22.279 27.1453L22.1057 27.172C21.7839 27.2277 21.4607 27.2744 21.1363 27.312C20.8577 27.3386 20.5737 27.348 20.283 27.2906C19.8105 27.1952 19.3706 26.9793 19.006 26.6639C18.6413 26.3486 18.3643 25.9444 18.2017 25.4906C18.1082 25.2158 18.0561 24.9287 18.047 24.6386C18.031 24.3666 18.031 24.036 18.031 23.6493V18.0853C18.031 17.5186 18.031 17.0306 18.1603 16.612C18.3036 16.1438 18.5671 15.7213 18.9246 15.3868C19.282 15.0522 19.721 14.8172 20.1977 14.7053C20.619 14.608 21.1003 14.6466 21.659 14.692L21.783 14.7013L21.9297 14.7146C22.9737 14.7973 23.6897 14.8533 24.2963 15.0813C24.7239 15.2422 25.1163 15.4586 25.4737 15.7306V14.1653C25.4737 7.75063 20.3363 2.55063 14.0003 2.55063C7.66433 2.55063 2.52699 7.75063 2.52699 14.1653V15.7306C2.88299 15.46 3.27766 15.24 3.70433 15.0813C4.31099 14.8546 5.02699 14.7973 6.07099 14.7133L6.21766 14.7013L6.34166 14.692C6.90166 14.6466 7.38166 14.608 7.80299 14.7053C8.27964 14.8172 8.7186 15.0522 9.07609 15.3868C9.43357 15.7213 9.69708 16.1438 9.84033 16.612C9.97099 17.0306 9.96966 17.5186 9.96966 18.0853V23.648C9.96966 24.036 9.96966 24.368 9.95366 24.6386C9.93766 24.9226 9.90032 25.208 9.79899 25.4893C9.63649 25.9429 9.35965 26.347 8.99526 26.6623C8.63088 26.9777 8.19128 27.1936 7.71899 27.2893C7.43674 27.3385 7.14879 27.3462 6.86433 27.312C6.59632 27.2853 6.27233 27.2333 5.89499 27.1733L5.72166 27.1466C4.65899 26.976 3.92966 26.86 3.32033 26.5653C2.72834 26.2787 2.2032 25.8709 1.77895 25.3683C1.3547 24.8658 1.04082 24.2796 0.857659 23.648C0.700325 23.108 0.672325 22.5053 0.668325 21.7L0.666992 21.44V14.1653Z" fill="#F4F1EB"/>
</svg>
