<svg width="133" height="198" viewBox="0 0 133 198" fill="none" xmlns="http://www.w3.org/2000/svg">
    <path d="M131.759 192.629C132.381 192.328 132.641 191.58 132.34 190.959L127.441 180.832C127.14 180.21 126.393 179.95 125.771 180.251C125.15 180.552 124.89 181.299 125.191 181.921L129.546 190.922L120.544 195.277C119.922 195.578 119.662 196.326 119.963 196.947C120.263 197.568 121.011 197.829 121.632 197.528L131.759 192.629ZM0.833366 2.86824C26.9076 13.3596 38.5857 27.0467 43.9302 42.376C49.3305 57.8651 48.3301 75.1124 48.6806 93.1016C49.029 110.985 50.7372 129.416 61.8639 146.633C72.9955 163.858 93.4245 179.679 130.804 192.684L131.626 190.323C94.5535 177.425 74.6876 161.87 63.9636 145.276C53.2348 128.674 51.5268 110.844 51.1801 93.0529C50.8356 75.3686 51.8614 57.5304 46.2909 41.553C40.6646 25.4158 28.375 11.2553 1.76657 0.548941L0.833366 2.86824Z"
          fill="#49504C"/>
</svg>
