<svg width="194" height="292" viewBox="0 0 194 292" fill="none" xmlns="http://www.w3.org/2000/svg">
    <path d="M66.6982 206.037H121.698C121.698 200 121.998 185.137 139.198 169.537C160.698 150.037 183.16 129.025 189.698 108.537C197.198 85.037 197.698 40.037 155.698 15.037C139.738 5.53701 101.083 -10.0261 54.1983 9.03701C8.69824 27.537 -1.63506 76.2037 0.198278 99.037H56.1983C56.1983 48.537 97.1983 47.4461 111.198 52.537C150.798 66.937 139.952 101.537 123.198 118.537C111.865 130.037 86.8982 155.937 77.6982 167.537C68.4982 179.137 66.5316 198.037 66.6982 206.037Z"
          fill="#49504C"/>
    <path d="M102.946 281.627L98.3919 262.398L113.826 277.452C116.735 280.361 120.657 283.524 124.579 277.072C126.223 274.367 126.577 268.217 118.886 266.193L99.657 260.5L120.91 254.681C128.374 252.657 126.729 248.608 125.211 245.572C121.796 238.994 116.862 241.398 113.699 244.181L98.3919 258.602L103.073 239.373C104.338 235.072 105.755 229 97.7594 229C90.4726 229 90.422 234.946 91.5606 239.373L96.1148 258.602L80.6811 243.548C77.7714 240.639 73.8497 237.476 69.928 243.928C68.2835 246.633 67.9292 252.783 75.6208 254.807L94.8497 260.5L73.5967 266.319C66.1329 268.343 67.7775 272.392 69.2955 275.428C72.7112 282.006 77.6449 279.602 80.8076 276.819L96.1148 262.398L91.4341 281.627C90.169 285.928 88.7521 292 96.7473 292C104.034 292 104.085 286.054 102.946 281.627Z"
          fill="#49504C"/>
</svg>
